<?xml version="1.0" encoding="iso-8859-1"?>
<!-- Generator: Adobe Illustrator 19.0.0, SVG Export Plug-In . SVG Version: 6.00 Build 0)  -->
<svg version="1.1" id="Capa_1" xmlns="http://www.w3.org/2000/svg" xmlns:xlink="http://www.w3.org/1999/xlink" x="0px" y="0px"
	 viewBox="0 0 433.633 433.633" style="enable-background:new 0 0 433.633 433.633;" xml:space="preserve">
<path style="fill:#4DCFE0;" d="M417.959,433.11c-4.18,0-7.837-1.567-10.971-4.702l-102.922-102.4
	c-6.269-6.269-6.269-16.196,0-21.943c6.269-6.269,16.196-6.269,21.943,0l102.922,102.4c6.269,6.269,6.269,16.196,0,21.943
	C425.796,431.543,422.139,433.11,417.959,433.11z"/>
<path style="fill:#1185E0;" d="M191.216,381.91C85.682,381.91,0,296.229,0,191.216S85.682,0.522,191.216,0.522
	s191.216,85.682,191.216,190.694S296.751,381.91,191.216,381.91z M191.216,31.869c-88.294,0-159.869,71.576-159.869,159.347
	s71.576,159.347,159.869,159.347s159.869-71.576,159.869-159.347S279.51,31.869,191.216,31.869z"/>
<g>
</g>
<g>
</g>
<g>
</g>
<g>
</g>
<g>
</g>
<g>
</g>
<g>
</g>
<g>
</g>
<g>
</g>
<g>
</g>
<g>
</g>
<g>
</g>
<g>
</g>
<g>
</g>
<g>
</g>
</svg>
